# xmcd
#
# Track frame offsets: 
#        150
#        16704
#        33304
#        49297
#        65753
#        81198
#        97192
#        110299
#        127981
#        156471
#        177457
#
# Disc length: 2650 seconds
#
# Revision: 0
# Processed by: cddbd v1.5.2PL0 Copyright (c) Steve Scherf et al.
# Submitted via: ExactAudioCopy v1.2
#
DISCID=920a580b
DTITLE=Elliott and The Audio Kings - Elliott and The Audio Kings
DYEAR=2016
DGENRE=Blues
TTITLE0=What They Say About You
TTITLE1=One Of A Kind
TTITLE2=What Tomorrow Brings
TTITLE3=Come On Home
TTITLE4=Easier Said Than Done
TTITLE5=No Need To Be Alone
TTITLE6=Another Day, Another Dollar
TTITLE7=Friday Night
TTITLE8=Jealous Kind
TTITLE9=I Don't Want To Work
TTITLE10=I Know
EXTD=
EXTT0=
EXTT1=
EXTT2=
EXTT3=
EXTT4=
EXTT5=
EXTT6=
EXTT7=
EXTT8=
EXTT9=
EXTT10=
PLAYORDER=
